<?xml version="1.0" standalone="no"?>
<!DOCTYPE svg PUBLIC "-//W3C//DTD SVG 20010904//EN"
 "http://www.w3.org/TR/2001/REC-SVG-20010904/DTD/svg10.dtd">
<svg version="1.0" xmlns="http://www.w3.org/2000/svg"
 width="421.000000pt" height="421.000000pt" viewBox="0 0 421.000000 421.000000"
 preserveAspectRatio="xMidYMid meet">
<metadata>
Created by potrace 1.14, written by Peter Selinger 2001-2017
</metadata>
<g transform="translate(0.000000,421.000000) scale(0.100000,-0.100000)"
fill="#000000" stroke="none">
<path d="M1918 3631 c-10 -11 -36 -22 -67 -26 -28 -4 -61 -15 -75 -26 -13 -10
-34 -20 -46 -22 -46 -7 -130 -101 -130 -147 0 -5 -16 -30 -35 -56 -24 -31 -35
-56 -35 -80 0 -19 -4 -34 -9 -34 -20 0 -53 -69 -46 -98 4 -19 -2 -48 -15 -81
-15 -40 -19 -65 -14 -100 5 -36 0 -67 -21 -132 -42 -132 -85 -366 -85 -459 0
-22 -4 -40 -8 -40 -4 0 -8 -10 -8 -22 1 -41 -15 -118 -24 -118 -5 0 -11 13
-15 28 -3 15 -16 45 -29 67 l-24 39 -6 -30 c-13 -62 -15 -74 -7 -70 5 3 15 -2
24 -12 57 -61 57 -61 57 -120 0 -60 -12 -84 -36 -75 -11 4 -14 -11 -14 -75 0
-58 -4 -85 -15 -96 -13 -13 -13 -16 0 -29 8 -9 19 -17 24 -19 5 -1 14 -50 20
-107 18 -169 66 -278 201 -460 154 -207 287 -294 494 -321 154 -21 280 7 481
105 200 97 277 160 460 373 70 81 83 92 105 87 76 -19 76 -19 119 24 23 23 44
55 48 71 3 16 9 28 13 25 4 -2 5 7 2 21 -4 23 -8 19 -40 -38 -19 -35 -41 -71
-49 -80 -18 -20 -70 -21 -77 -1 -6 15 44 126 69 153 13 15 14 19 1 29 -11 9
-12 20 -4 49 13 48 47 95 63 88 8 -3 19 1 25 9 6 7 31 20 55 28 43 15 44 15
48 -6 2 -12 5 4 6 36 l1 57 -27 -6 c-48 -12 -80 -32 -118 -76 l-38 -43 7 63
c6 61 19 101 38 113 6 4 30 96 54 205 81 368 84 463 17 585 -40 71 -41 77 -36
144 l5 70 -51 68 c-57 74 -120 128 -214 183 -34 19 -98 62 -142 94 -87 64
-180 114 -235 125 -19 4 -52 19 -73 32 -55 34 -112 53 -163 53 -29 0 -64 10
-105 31 -57 29 -64 31 -98 19 -35 -11 -42 -10 -99 19 -72 36 -82 37 -104 12z
m44 -66 c3 -13 1 -22 -3 -19 -9 5 -13 44 -5 44 2 0 6 -11 8 -25z m343 -147
c14 -29 25 -49 25 -44 0 17 8 2 29 -54 13 -34 16 -48 7 -37 -14 17 -14 18 -18
1 -2 -15 -20 26 -75 174 -3 6 -2 12 1 12 4 0 18 -24 31 -52z m334 -188 c0 -10
-3 -8 -9 5 -12 27 -12 43 0 25 5 -8 9 -22 9 -30z m-664 -206 c208 -48 380 -75
550 -84 227 -13 300 -33 399 -112 106 -84 131 -148 131 -328 0 -121 -1 -128
-37 -215 -57 -140 -69 -195 -78 -380 -5 -93 -14 -192 -21 -220 -18 -81 -98
-222 -150 -269 -26 -23 -70 -69 -98 -103 -28 -35 -75 -80 -104 -102 -88 -66
-297 -180 -344 -187 -63 -9 -129 4 -162 32 -34 28 -51 30 -93 8 -41 -21 -120
-15 -179 14 -99 50 -134 86 -244 253 -58 89 -115 180 -127 203 -11 22 -36 66
-54 96 -25 41 -36 75 -45 135 -15 108 -6 194 36 355 45 167 60 244 86 440 28
215 50 285 120 377 59 78 163 127 254 118 28 -3 100 -17 160 -31z m-704 -1101
c-9 -16 -10 -15 -11 8 0 14 3 29 8 33 12 12 14 -22 3 -41z m-4 -85 c-3 -7 -5
-2 -5 12 0 14 2 19 5 13 2 -7 2 -19 0 -25z"/>
<path d="M1585 2591 c-26 -12 -75 -57 -75 -71 0 -15 11 -13 48 10 60 37 127
23 233 -47 50 -33 120 -54 142 -41 32 17 -1 47 -111 100 -110 53 -190 70 -237
49z"/>
<path d="M1625 2314 c-82 -20 -176 -84 -168 -115 7 -24 12 -24 37 0 23 20 98
63 103 57 2 -1 -2 -17 -8 -35 -13 -36 -7 -117 9 -133 6 -6 36 -16 68 -24 52
-12 60 -11 95 6 38 20 58 13 43 -12 -5 -8 -1 -8 10 1 29 24 48 71 48 120 l0
46 19 -24 c11 -13 24 -43 30 -68 9 -35 14 -41 25 -32 15 12 19 86 5 107 -7 12
-29 25 -145 85 -39 20 -128 31 -171 21z m79 -67 c13 -21 -15 -53 -38 -44 -26
10 -31 38 -11 54 22 16 35 13 49 -10z"/>
<path d="M2290 2269 c0 -8 4 -20 9 -28 6 -10 3 -20 -12 -32 -12 -9 -19 -20
-16 -23 3 -3 72 -7 155 -10 107 -3 173 -10 233 -25 90 -23 110 -22 64 3 -37
20 -18 20 41 0 85 -29 69 6 -22 48 -27 12 -84 24 -145 29 -95 9 -233 31 -284
45 -16 4 -23 2 -23 -7z"/>
<path d="M2302 2051 c-8 -5 -12 -17 -10 -27 3 -17 17 -20 129 -25 129 -6 262
-30 312 -56 16 -8 31 -12 33 -10 3 3 -28 18 -68 35 -75 31 -138 46 -242 57
-32 4 -76 13 -98 21 -47 16 -40 16 -56 5z"/>
<path d="M1880 1791 c-17 -34 -12 -106 10 -134 39 -49 163 -81 224 -57 33 12
66 66 66 108 0 40 -15 41 -35 2 -20 -39 -49 -53 -110 -53 -91 0 -153 51 -142
118 6 39 3 44 -13 16z"/>
<path d="M1675 1551 c-3 -6 -2 -11 3 -11 6 0 20 -19 32 -42 50 -97 151 -188
213 -192 17 -1 32 -7 34 -12 2 -5 22 -8 44 -6 22 3 46 -1 52 -7 28 -28 172 1
282 56 28 14 68 45 91 70 39 42 42 43 68 32 23 -11 29 -10 37 2 25 40 5 70
-62 89 -37 11 -63 -12 -54 -47 l6 -25 -203 5 c-204 4 -221 7 -486 65 -18 4
-32 11 -32 17 2 14 -17 18 -25 6z m260 -101 c50 -11 102 -20 117 -20 15 0 30
-5 33 -11 5 -7 -8 -8 -41 -4 -70 10 -202 43 -222 55 -15 10 -15 10 3 6 11 -3
61 -15 110 -26z"/>
<path d="M1799 1282 c34 -64 155 -114 281 -116 67 -1 83 3 143 33 37 19 84 49
105 67 36 32 36 32 -50 -12 -189 -97 -331 -93 -448 12 -31 28 -40 33 -31 16z"/>
</g>
</svg>
